<svg xmlns="http://www.w3.org/2000/svg" viewBox="0 0 128 128" role="img" aria-label="Startmark icon">
  <defs>
    <linearGradient id="startmark-bg" x1="18" y1="12" x2="110" y2="118" gradientUnits="userSpaceOnUse">
      <stop offset="0" stop-color="#fff6dc"/>
      <stop offset="0.52" stop-color="#ffd86b"/>
      <stop offset="1" stop-color="#ff8a3d"/>
    </linearGradient>
    <linearGradient id="startmark-card" x1="34" y1="30" x2="94" y2="96" gradientUnits="userSpaceOnUse">
      <stop offset="0" stop-color="#ffffff"/>
      <stop offset="1" stop-color="#fff8ea"/>
    </linearGradient>
    <filter id="soft-shadow" x="-20%" y="-20%" width="140%" height="140%">
      <feDropShadow dx="0" dy="8" stdDeviation="8" flood-color="#8a4a12" flood-opacity="0.22"/>
    </filter>
  </defs>

  <rect width="128" height="128" rx="30" fill="url(#startmark-bg)"/>
  <circle cx="99" cy="28" r="18" fill="#1f2937" opacity="0.1"/>
  <path d="M96 13l4.2 8.5 9.4 1.4-6.8 6.6 1.6 9.3-8.4-4.4-8.4 4.4 1.6-9.3-6.8-6.6 9.4-1.4L96 13z" fill="#ffffff"/>

  <g filter="url(#soft-shadow)">
    <rect x="28" y="31" width="72" height="66" rx="18" fill="url(#startmark-card)"/>
    <path d="M44 31h40v50L64 67 44 81V31z" fill="#202123"/>
    <path d="M54 45h20" stroke="#ffd86b" stroke-width="5" stroke-linecap="round"/>
    <path d="M54 56h14" stroke="#ffd86b" stroke-width="5" stroke-linecap="round" opacity="0.72"/>
  </g>

  <path d="M37 103h54" stroke="#202123" stroke-width="6" stroke-linecap="round" opacity="0.18"/>
</svg>
